<svg id="Layer_1" data-name="Layer 1" xmlns="http://www.w3.org/2000/svg" viewBox="0 0 204.457 116.848"><defs><style>.cls-1{stroke-miterlimit:10;stroke-width:0.5px;}.cls-2{fill:#f1f2f2;}.cls-3{fill:#ed1c24;opacity:0;}</style></defs><rect class="cls-1" x="0.25" y="0.25" width="203.957" height="116.348"/><path class="cls-2" d="M254.212,405.69V387.052h6.416a7.8,7.8,0,0,1,3.634.744,4.928,4.928,0,0,1,2.118,2.011,5.735,5.735,0,0,1,.691,2.81,5.626,5.626,0,0,1-.918,3.144,5.036,5.036,0,0,1-2.863,2.018l3.969,7.911h-3.272l-3.627-7.509h-3.325v7.509Zm2.823-9.641h3.432a3.712,3.712,0,0,0,2.809-.932,3.338,3.338,0,0,0,.892-2.42,3.247,3.247,0,0,0-.878-2.387,3.892,3.892,0,0,0-2.85-.891h-3.4Z" transform="translate(-203.771 -337.576)"/><path class="cls-2" d="M270.4,405.69V387.052H282.25v2.286h-9.024v5.806h8.226v2.239h-8.226V403.4h9.024v2.293Z" transform="translate(-203.771 -337.576)"/><path class="cls-2" d="M293.909,406.012a9.124,9.124,0,0,1-4.781-1.214,8.077,8.077,0,0,1-3.1-3.379,12.144,12.144,0,0,1,0-10.07,8.2,8.2,0,0,1,3.1-3.392,9.009,9.009,0,0,1,4.781-1.227,8.509,8.509,0,0,1,5.35,1.6A7.112,7.112,0,0,1,301.9,392.8h-3.144a4.421,4.421,0,0,0-1.6-2.581,5.151,5.151,0,0,0-3.278-.959,5.486,5.486,0,0,0-4.418,1.9,7.779,7.779,0,0,0-1.623,5.23,7.686,7.686,0,0,0,1.623,5.189,5.516,5.516,0,0,0,4.418,1.891,5.4,5.4,0,0,0,3.278-.905,4.182,4.182,0,0,0,1.6-2.474H301.9a6.953,6.953,0,0,1-2.641,4.337A8.58,8.58,0,0,1,293.909,406.012Z" transform="translate(-203.771 -337.576)"/><path class="cls-2" d="M326,405.69V387.052h6.416a7.8,7.8,0,0,1,3.634.744,4.928,4.928,0,0,1,2.118,2.011,5.735,5.735,0,0,1,.691,2.81,5.619,5.619,0,0,1-.919,3.144,5.03,5.03,0,0,1-2.862,2.018l3.969,7.911h-3.272l-3.627-7.509h-3.326v7.509Zm2.822-9.641h3.433a3.712,3.712,0,0,0,2.809-.932,3.338,3.338,0,0,0,.892-2.42,3.247,3.247,0,0,0-.878-2.387,3.892,3.892,0,0,0-2.85-.891h-3.406Z" transform="translate(-203.771 -337.576)"/><path class="cls-2" d="M342.187,405.69V387.052h6.047a11.274,11.274,0,0,1,5.391,1.146,7.241,7.241,0,0,1,3.137,3.232,12.475,12.475,0,0,1,0,9.909,7.146,7.146,0,0,1-3.137,3.218,11.351,11.351,0,0,1-5.391,1.133Zm2.822-2.393h3.118a8.145,8.145,0,0,0,4-.832,4.752,4.752,0,0,0,2.132-2.366,9.488,9.488,0,0,0,.651-3.7,9.65,9.65,0,0,0-.651-3.728,4.854,4.854,0,0,0-2.132-2.413,8.141,8.141,0,0,0-4-.838h-3.118Z" transform="translate(-203.771 -337.576)"/><circle class="cls-3" cx="109.867" cy="58.722" r="9.37"/></svg>