<?xml version="1.0" encoding="UTF-8"?><svg id="a" xmlns="http://www.w3.org/2000/svg" xmlns:xlink="http://www.w3.org/1999/xlink" viewBox="0 0 1838.394 391.927"><defs><style>.aa{fill:url(#u);}.ab{fill:url(#t);}.ac{fill:url(#v);}.ad{fill:url(#e);}.ae{fill:url(#d);}.af{fill:url(#g);}.ag{fill:url(#f);}.ah{fill:url(#p);}.ai{fill:url(#o);}.aj{fill:url(#s);}.ak{fill:url(#q);}.al{fill:url(#r);}.am{fill:url(#i);}.an{fill:url(#h);}.ao{fill:url(#k);}.ap{fill:url(#j);}.aq{fill:url(#m);}.ar{fill:url(#l);}.as{fill:url(#n);}.at{fill:url(#c);}.au{fill:url(#b);}.av{fill:url(#x);}.aw{fill:url(#w);}.ax{fill:url(#y);}.ay{fill:url(#a`);}.b`{fill:#f1f2f2;}.ba{fill:#97d5ea;}.bb{fill:#231f20;}</style><linearGradient id="b" x1="306.917" y1="177.431" x2="307.015" y2="218.836" gradientTransform="matrix(1, 0, 0, 1, 0, 0)" gradientUnits="userSpaceOnUse"><stop offset="0" stop-color="#006938"/><stop offset="1" stop-color="#008944"/></linearGradient><linearGradient id="c" x1="214.843" y1="283.448" x2="434.783" y2="307.281" gradientTransform="matrix(1, 0, 0, 1, 0, 0)" gradientUnits="userSpaceOnUse"><stop offset="0" stop-color="#006938"/><stop offset="1" stop-color="#008944"/></linearGradient><linearGradient id="d" x1="1.197" y1="352.947" x2="468.678" y2="352.947" xlink:href="#b"/><linearGradient id="e" x1="51.338" y1="284.777" x2="87.648" y2="231.265" gradientTransform="matrix(1, 0, 0, 1, 0, 0)" gradientUnits="userSpaceOnUse"><stop offset="0" stop-color="#0e2917"/><stop offset="1" stop-color="#008944"/></linearGradient><linearGradient id="f" x1="536.979" y1="235.479" x2="634.438" y2="235.479" xlink:href="#c"/><linearGradient id="g" x1="516.006" y1="274.389" x2="563.155" y2="274.389" gradientTransform="matrix(1, 0, 0, 1, 0, 0)" gradientUnits="userSpaceOnUse"><stop offset="0" stop-color="#89c540"/><stop offset="1" stop-color="#307037"/></linearGradient><linearGradient id="h" x1="84.16" y1="112.289" x2="111.295" y2="112.289" xlink:href="#g"/><linearGradient id="i" x1="46.322" y1="117.156" x2="82.82" y2="117.156" xlink:href="#c"/><linearGradient id="j" x1="500.586" y1="209.961" x2="533.976" y2="209.961" xlink:href="#c"/><linearGradient id="k" x1="481.876" y1="224.9" x2="509.012" y2="224.9" xlink:href="#g"/><linearGradient id="l" x1="919.677" y1="177.431" x2="919.774" y2="218.836" gradientTransform="translate(1838.394) rotate(-180) scale(1 -1)" xlink:href="#b"/><linearGradient id="m" x1="827.603" y1="283.448" x2="1047.542" y2="307.281" gradientTransform="translate(1838.394) rotate(-180) scale(1 -1)" xlink:href="#b"/><linearGradient id="n" x1="613.957" y1="352.947" x2="1081.437" y2="352.947" gradientTransform="translate(1838.394) rotate(-180) scale(1 -1)" xlink:href="#b"/><linearGradient id="o" x1="1532.436" y1="177.132" x2="1532.534" y2="218.537" xlink:href="#b"/><linearGradient id="p" x1="1440.362" y1="283.149" x2="1660.302" y2="306.982" xlink:href="#b"/><linearGradient id="q" x1="1226.716" y1="352.648" x2="1694.196" y2="352.648" xlink:href="#b"/><linearGradient id="r" x1="845.517" y1="228.476" x2="942.976" y2="228.476" xlink:href="#b"/><linearGradient id="s" x1="824.544" y1="267.385" x2="871.693" y2="267.385" xlink:href="#g"/><linearGradient id="t" x1="1246.492" y1="127.18" x2="1294.294" y2="127.18" xlink:href="#c"/><linearGradient id="u" x1="1320.013" y1="134.091" x2="1289.347" y2="161.261" xlink:href="#g"/><linearGradient id="v" x1="1280.726" y1="243.23" x2="1307.861" y2="243.23" xlink:href="#g"/><linearGradient id="w" x1="1230.391" y1="288.405" x2="1286.705" y2="205.411" xlink:href="#e"/><linearGradient id="x" x1="1778.244" y1="185.773" x2="1805.379" y2="185.773" xlink:href="#g"/><linearGradient id="y" x1="1740.406" y1="190.639" x2="1776.905" y2="190.639" xlink:href="#b"/><linearGradient id="a`" x1="1774.796" y1="222.266" x2="1790.746" y2="198.759" xlink:href="#e"/></defs><path class="b`" d="M126.821,30.996c5.764-6.515,11.255-9.046,14.889-10.189,15.734-4.949,26.912,6.604,40.607,.226,5.823-2.712,4.197-4.984,10.829-9.475,15.225-10.309,41.154-10.087,55.045,4.286,2.491,2.578,6.245,7.318,8.505,15.152H126.821Z"/><path class="b`" d="M440.631,17.681C455.585,3.625,468.058,.523,476.718,.311c24.758-.608,35.627,21.977,58.814,16.819,9.227-2.052,16.141-7.55,26.5-4.546,6.101,1.769,10.43,5.627,13.19,8.715-44.864-1.206-89.728-2.412-134.592-3.618Z"/><path class="au" d="M612.875,228.688c-52.018,31.543-127.685,66.639-223.702,79.89C194.532,335.44,46.727,254.524,1.197,227.161V124.129c26.859-2.35,101.135-5.167,172.545,41.789,34.445,22.65,56.92,49.448,70.61,69.169,64.219,17.086,113.191,13.269,146.262,6.485,70.687-14.501,102.615-49.513,179.406-56.199,14.989-1.305,29.054-1.302,41.929-.505l.926,43.821Z"/><path class="ba" d="M1.197,227.161c123.884-18.017,218.099-5.375,283.385,10.872,65.561,16.315,128.655,42.91,215.858,29.386,48.544-7.529,86.886-24.749,112.434-38.731v113.564c-73.761-35.669-132.087-39.519-172.285-36.117-77.849,6.588-111.092,42.354-181.745,27.961-50.392-10.266-56.368-33.123-103.223-41.184-60.387-10.388-115.833,16.333-154.425,41.819v-107.57Z"/><path class="b`" d="M227.186,161.114c4.742-4.776,12.644-11.322,23.703-14.029,19.121-4.681,28.243,6.872,48.182,7.12,26.17,.326,32.005-19.307,56.489-23.023,14.113-2.142,35.363,.861,64.675,26.447-64.349,1.162-128.699,2.323-193.048,3.485Z"/><path class="at" d="M0,196.229c25.102,1.694,60.716,8.36,96.777,32.717,40.976,27.677,51.081,56.955,87.242,72.484,43.149,18.53,83.902,.523,102.165-6.273,55.991-20.833,151.776-29.74,326.69,20.017v24.359L0,324.287V196.229Z"/><rect class="ae" x="1.197" y="313.966" width="611.678" height="77.962"/><path class="b`" d="M1.197,79.612c4.43-5.622,8.883-8.103,12.146-9.328,14.554-5.465,26.897,5.989,36.687-1.154,3.772-2.752,3.903-5.886,9.229-8.307,1.171-.532,7.44-3.382,12.666-.742,5.482,2.769,8.384,10.857,6.096,19.531H1.197Z"/><g><path class="ad" d="M26.893,286.587c.061,2.045,1.166,3.914,2.922,4.964,5.492,3.283,15.426,7.996,28.575,8.402,13.649,.422,24.192-4,29.983-7.124,1.923-1.037,3.121-3.042,3.143-5.227,.099-10.007-1.098-25.09-7.712-41.865-4.841-12.279-11.122-21.757-16.516-28.512-2.108-2.641-5.981-2.993-8.58-.834-7.612,6.323-18.775,17.729-25.732,35.276-5.543,13.982-6.333,26.612-6.084,34.92Z"/><path class="bb" d="M59.188,238.906c.673,26.452,.657,54.4,0,80.884-.658-26.493-.673-54.422,0-80.884h0Z"/><path class="bb" d="M74.461,262.681c-.761,6.565-7.444,11.415-13.829,11.215,6.16-1.332,11.631-5.211,13.829-11.215h0Z"/><path class="bb" d="M49.971,247.37c-.816,5.413,2.925,9.834,8.358,10.11-5.771,1.4-10.873-4.703-8.358-10.11h0Z"/><path class="bb" d="M45.17,276.71c1.282,4.571,4.36,8.266,8.695,10.053,1.411,.599,2.905,1.048,4.463,1.327-6.455,.594-13.062-4.717-13.159-11.38h0Z"/></g><g><path class="ag" d="M537.04,279.344c.092,3.082,1.758,5.899,4.404,7.481,8.277,4.948,23.248,12.05,43.065,12.662,20.57,.635,36.458-6.028,45.185-10.736,2.898-1.563,4.704-4.585,4.736-7.877,.149-15.082-1.655-37.811-11.622-63.093-7.296-18.506-16.762-32.788-24.89-42.969-3.178-3.979-9.013-4.511-12.931-1.257-11.472,9.528-28.296,26.719-38.779,53.163-8.354,21.072-9.544,40.106-9.169,52.627Z"/><path class="bb" d="M585.709,207.487c1.369,40.618,1.38,81.278,0,121.896-1.38-40.618-1.369-81.278,0-121.896h0Z"/><path class="bb" d="M608.727,243.316c-1.552,9.777-11.217,16.782-20.84,16.902,1.173-.232,2.333-.486,3.462-.842,7.922-2.228,14.82-8.116,17.378-16.06h0Z"/><path class="bb" d="M571.819,220.242c-1.119,5.64,1.509,11.835,6.992,14.033,1.745,.716,3.647,1.153,5.603,1.204-8.731,1.588-15.884-6.951-12.595-15.237h0Z"/><path class="bb" d="M564.584,264.459c1.794,8.115,8.3,14.562,16.36,16.449,1.132,.32,2.293,.535,3.471,.702-9.796,.435-19.222-7.162-19.831-17.151h0Z"/></g><g><path class="af" d="M516.035,295.61c.045,1.491,.85,2.854,2.13,3.619,4.004,2.394,11.247,5.83,20.834,6.126,9.951,.307,17.638-2.916,21.86-5.194,1.402-.756,2.276-2.218,2.291-3.811,.072-7.296-.801-18.293-5.623-30.524-3.53-8.953-8.109-15.863-12.042-20.788-1.537-1.925-4.36-2.182-6.256-.608-5.55,4.61-13.689,12.926-18.761,25.719-4.041,10.194-4.617,19.403-4.436,25.46Z"/><path class="bb" d="M539.581,260.846c1.371,19.627,1.381,39.345,0,58.972-1.382-19.626-1.371-39.345,0-58.972h0Z"/><path class="bb" d="M550.717,278.18c-.332,4.824-5.407,8.546-10.082,8.177,4.478-1.2,8.243-3.823,10.082-8.177h0Z"/><path class="bb" d="M532.861,267.017c-.4,3.825,2.183,6.992,6.094,7.371-4.262,1.282-8.17-3.51-6.094-7.371h0Z"/><path class="bb" d="M529.361,288.409c1.095,3.295,3.256,5.87,6.377,7.231,1.011,.457,2.086,.797,3.217,1.067-4.774,.641-9.72-3.384-9.594-8.297h0Z"/></g><g><path class="an" d="M84.177,124.502c.026,.858,.489,1.642,1.226,2.083,2.304,1.378,6.473,3.355,11.99,3.526,5.727,.177,10.151-1.678,12.581-2.989,.807-.435,1.31-1.277,1.319-2.193,.041-4.199-.461-10.528-3.236-17.567-2.031-5.153-4.667-9.129-6.93-11.964-.885-1.108-2.51-1.256-3.6-.35-3.194,2.653-7.878,7.439-10.797,14.802-2.326,5.867-2.657,11.167-2.553,14.653Z"/><path class="bb" d="M97.727,104.495c.682,11.277,.682,22.661,0,33.939-.682-11.28-.682-22.661,0-33.939h0Z"/><path class="bb" d="M104.136,114.471c.128,2.874-3.07,5.253-5.802,4.706,2.535-1.022,4.423-2.301,5.802-4.706h0Z"/><path class="bb" d="M93.86,108.047c.118,2.178,1.301,3.669,3.507,4.242-2.51,1.124-5.079-2.06-3.507-4.242h0Z"/><path class="bb" d="M91.846,120.358c1.155,2.525,2.928,3.883,5.521,4.775-2.751,.731-5.954-1.901-5.521-4.775h0Z"/></g><g><path class="am" d="M46.345,133.583c.035,1.154,.658,2.209,1.649,2.802,3.1,1.853,8.707,4.513,16.128,4.742,7.703,.238,13.654-2.258,16.922-4.021,1.085-.585,1.762-1.717,1.774-2.95,.056-5.648-.62-14.16-4.352-23.628-2.732-6.93-6.277-12.279-9.321-16.092-1.19-1.49-3.375-1.689-4.842-.471-4.296,3.568-10.597,10.006-14.523,19.909-3.129,7.891-3.574,15.02-3.434,19.709Z"/><path class="bb" d="M64.571,106.672c.672,15.176,.672,30.471,0,45.65-.672-15.181-.672-30.473,0-45.65h0Z"/><path class="bb" d="M73.192,120.091c-.087,3.786-4.163,6.794-7.805,6.33,3.445-1.106,6.21-3.013,7.805-6.33h0Z"/><path class="bb" d="M59.37,111.449c-.122,2.95,1.713,5.223,4.717,5.706-3.331,1.197-6.524-2.737-4.717-5.706h0Z"/><path class="bb" d="M56.66,128.009c1.279,3.457,3.911,5.501,7.427,6.423-3.672,.702-7.735-2.616-7.427-6.423h0Z"/></g><g><path class="ap" d="M500.607,224.989c.032,1.056,.602,2.021,1.509,2.563,2.836,1.695,7.965,4.128,14.754,4.338,7.047,.218,12.491-2.065,15.481-3.678,.993-.536,1.612-1.571,1.623-2.699,.051-5.167-.567-12.954-3.982-21.616-2.5-6.34-5.743-11.234-8.528-14.721-1.089-1.363-3.088-1.546-4.43-.431-3.93,3.265-9.694,9.154-13.286,18.214-2.862,7.219-3.27,13.74-3.141,18.03Z"/><path class="bb" d="M517.281,200.37c1.37,13.878,1.381,27.885,0,41.762-1.381-13.878-1.371-27.884,0-41.762h0Z"/><path class="bb" d="M525.168,212.646c-.016,3.483-3.8,6.282-7.14,5.791,3.143-1.078,5.617-2.776,7.14-5.791h0Z"/><path class="bb" d="M512.523,204.74c-.041,2.694,1.576,4.707,4.315,5.22-3.059,1.172-6.044-2.512-4.315-5.22h0Z"/><path class="bb" d="M510.044,219.889c1.237,3.147,3.584,4.964,6.794,5.876-3.366,.712-7.144-2.379-6.794-5.876h0Z"/></g><g><path class="ao" d="M481.893,237.113c.026,.858,.489,1.642,1.226,2.083,2.304,1.378,6.473,3.355,11.99,3.526,5.727,.177,10.151-1.678,12.581-2.989,.807-.435,1.31-1.277,1.319-2.193,.041-4.199-.461-10.528-3.236-17.567-2.031-5.153-4.667-9.129-6.93-11.964-.885-1.108-2.51-1.256-3.6-.35-3.194,2.653-7.878,7.439-10.797,14.802-2.326,5.867-2.657,11.167-2.553,14.653Z"/><path class="bb" d="M495.444,217.106c1.37,11.261,1.381,22.679,0,33.939-1.381-11.26-1.37-22.679,0-33.939h0Z"/><path class="bb" d="M501.853,227.082c.128,2.874-3.07,5.253-5.802,4.706,2.536-1.022,4.423-2.301,5.802-4.706h0Z"/><path class="bb" d="M491.577,220.658c.118,2.178,1.301,3.669,3.507,4.242-2.51,1.124-5.079-2.06-3.507-4.242h0Z"/><path class="bb" d="M489.562,232.969c1.155,2.525,2.928,3.883,5.522,4.775-2.751,.731-5.954-1.901-5.522-4.775h0Z"/></g><path class="b`" d="M1098.814,30.996c-5.764-6.515-11.255-9.046-14.889-10.189-15.734-4.949-26.912,6.604-40.607,.226-5.823-2.712-4.197-4.984-10.829-9.475-15.225-10.309-41.154-10.087-55.045,4.286-2.491,2.578-6.245,7.318-8.505,15.152h129.875Z"/><path class="b`" d="M785.004,17.681c-14.955-14.056-27.427-17.158-36.087-17.371-24.758-.608-35.627,21.977-58.814,16.819-9.227-2.052-16.141-7.55-26.5-4.546-6.101,1.769-10.43,5.627-13.19,8.715,44.864-1.206,89.728-2.412,134.592-3.618Z"/><path class="ar" d="M612.759,228.688c52.018,31.543,127.685,66.639,223.702,79.89,194.641,26.861,342.447-54.054,387.976-81.417V124.129c-26.859-2.35-101.135-5.167-172.545,41.789-34.445,22.65-56.92,49.448-70.61,69.169-64.219,17.086-113.191,13.269-146.262,6.485-70.687-14.501-102.615-49.513-179.406-56.199-14.989-1.305-29.054-1.302-41.929-.505l-.926,43.821Z"/><path class="ba" d="M1224.438,227.161c-123.884-18.017-218.099-5.375-283.385,10.872-65.561,16.315-128.655,42.91-215.858,29.386-48.544-7.529-86.886-24.749-112.434-38.731v113.564c73.761-35.669,132.087-39.519,172.285-36.117,77.849,6.588,111.092,42.354,181.745,27.961,50.392-10.266,56.368-33.123,103.223-41.184,60.387-10.388,115.833,16.333,154.425,41.819v-107.57Z"/><path class="b`" d="M998.448,161.114c-4.742-4.776-12.644-11.322-23.703-14.029-19.121-4.681-28.243,6.872-48.182,7.12-26.17,.326-32.005-19.307-56.489-23.023-14.113-2.142-35.363,.861-64.675,26.447,64.349,1.162,128.699,2.323,193.048,3.485Z"/><path class="aq" d="M1225.635,196.229c-25.102,1.694-60.716,8.36-96.777,32.717-40.976,27.677-51.081,56.955-87.242,72.484-43.149,18.53-83.902,.523-102.165-6.273-55.991-20.833-151.776-29.74-326.69,20.017v24.359l612.875-15.246V196.229Z"/><rect class="as" x="612.759" y="313.966" width="611.678" height="77.962"/><path class="b`" d="M1261.975,69.294c5.764-6.515,11.255-9.046,14.889-10.189,15.734-4.949,26.912,6.604,40.607,.226,5.823-2.712,4.197-4.984,10.829-9.475,15.225-10.309,41.154-10.087,55.045,4.286,2.491,2.578,6.245,7.318,8.505,15.152h-129.875Z"/><path class="b`" d="M1666.149,17.383C1681.104,3.327,1693.577,.225,1702.237,.012c24.758-.608,35.627,21.977,58.814,16.819,9.227-2.052,16.141-7.55,26.5-4.546,6.101,1.769,10.43,5.627,13.19,8.715-44.864-1.206-89.728-2.412-134.592-3.618Z"/><path class="ai" d="M1838.394,228.39c-52.018,31.543-127.685,66.639-223.702,79.89-194.641,26.861-342.447-54.054-387.976-81.417V123.831c26.859-2.35,101.135-5.167,172.545,41.789,34.445,22.65,56.92,49.448,70.61,69.169,64.219,17.086,113.191,13.269,146.262,6.485,70.687-14.501,102.615-49.513,179.406-56.199,14.989-1.305,29.054-1.302,41.929-.505l.926,43.821Z"/><path class="ba" d="M1226.716,226.863c123.884-18.017,218.099-5.375,283.385,10.872,65.561,16.315,128.655,42.91,215.858,29.386,48.544-7.529,86.886-24.749,112.434-38.731v113.564c-73.761-35.669-132.087-39.519-172.285-36.117-77.849,6.588-111.092,42.354-181.745,27.961-50.392-10.266-56.368-33.123-103.223-41.184-60.387-10.388-115.833,16.333-154.425,41.819v-107.57Z"/><path class="b`" d="M1452.705,160.816c4.742-4.776,12.644-11.322,23.703-14.029,19.121-4.681,28.243,6.872,48.182,7.12,26.17,.326,32.005-19.307,56.489-23.023,14.113-2.142,35.363,.861,64.675,26.447-64.349,1.162-128.699,2.323-193.048,3.485Z"/><path class="ah" d="M1225.519,195.931c25.102,1.694,60.716,8.36,96.777,32.717,40.976,27.677,51.081,56.955,87.242,72.484,43.149,18.53,83.902,.523,102.165-6.273,55.991-20.833,151.776-29.74,326.69,20.017v24.359l-612.875-15.246V195.931Z"/><rect class="ak" x="1226.716" y="313.667" width="611.678" height="77.962"/><path class="b`" d="M774.32,161.678c-2.199-2.082-5.679-4.886-10.507-6.852-13.154-5.355-20.638,1.898-33.897-1.883-11.297-3.221-9.348-9.481-20.903-12.617-14.541-3.947-27.784,3.208-30.375,4.608-9.793,5.291-15.166,12.858-17.542,16.744h113.224Z"/><g><path class="al" d="M845.578,272.34c.092,3.082,1.758,5.899,4.404,7.481,8.277,4.948,23.248,12.05,43.065,12.662,20.57,.635,36.458-6.028,45.185-10.736,2.898-1.563,4.704-4.585,4.736-7.877,.149-15.082-1.655-37.811-11.622-63.093-7.296-18.506-16.762-32.788-24.89-42.969-3.178-3.979-9.013-4.511-12.931-1.257-11.472,9.528-28.296,26.719-38.779,53.163-8.354,21.072-9.544,40.106-9.169,52.627Z"/><path class="bb" d="M894.247,200.483c1.369,40.618,1.38,81.278,0,121.896-1.38-40.618-1.369-81.278,0-121.896h0Z"/><path class="bb" d="M917.265,236.313c-1.552,9.777-11.217,16.782-20.84,16.902,1.173-.232,2.333-.486,3.462-.842,7.922-2.228,14.82-8.116,17.378-16.06h0Z"/><path class="bb" d="M880.357,213.239c-1.119,5.64,1.509,11.835,6.992,14.033,1.745,.716,3.647,1.153,5.603,1.204-8.731,1.588-15.884-6.951-12.595-15.237h0Z"/><path class="bb" d="M873.121,257.456c1.794,8.115,8.3,14.562,16.36,16.449,1.132,.32,2.293,.535,3.471,.702-9.796,.435-19.222-7.162-19.831-17.151h0Z"/></g><g><path class="aj" d="M824.573,288.606c.045,1.491,.85,2.854,2.13,3.619,4.004,2.394,11.247,5.83,20.834,6.126,9.951,.307,17.638-2.916,21.86-5.194,1.402-.756,2.276-2.218,2.291-3.811,.072-7.296-.801-18.293-5.623-30.524-3.53-8.953-8.109-15.863-12.042-20.788-1.537-1.925-4.36-2.182-6.256-.608-5.55,4.61-13.689,12.926-18.761,25.719-4.041,10.194-4.617,19.403-4.436,25.46Z"/><path class="bb" d="M848.119,253.843c1.371,19.627,1.381,39.345,0,58.972-1.382-19.626-1.371-39.345,0-58.972h0Z"/><path class="bb" d="M859.255,271.177c-.332,4.824-5.407,8.546-10.082,8.177,4.478-1.2,8.243-3.823,10.082-8.177h0Z"/><path class="bb" d="M841.399,260.014c-.4,3.825,2.183,6.992,6.094,7.371-4.262,1.282-8.17-3.51-6.094-7.371h0Z"/><path class="bb" d="M837.899,281.405c1.095,3.295,3.256,5.87,6.377,7.231,1.011,.457,2.086,.797,3.217,1.067-4.774,.641-9.72-3.384-9.594-8.297h0Z"/></g><g><path class="ab" d="M1246.522,148.695c.045,1.511,.862,2.893,2.16,3.669,4.06,2.427,11.403,5.91,21.122,6.211,10.089,.312,17.882-2.957,22.163-5.266,1.421-.767,2.307-2.249,2.323-3.864,.073-7.397-.812-18.546-5.7-30.946-3.578-9.077-8.221-16.082-12.208-21.075-1.559-1.952-4.421-2.213-6.342-.617-5.627,4.674-13.878,13.105-19.02,26.075-4.097,10.335-4.681,19.671-4.497,25.812Z"/><path class="bb" d="M1270.393,113.451c.672,19.882,.672,39.901,0,59.788-.672-19.888-.672-39.904,0-59.788h0Z"/><path class="bb" d="M1281.683,131.024c-.347,4.887-5.483,8.653-10.222,8.29,4.541-1.206,8.367-3.872,10.222-8.29h0Z"/><path class="bb" d="M1263.58,119.707c-.417,3.879,2.212,7.101,6.178,7.473-.944,.279-1.979,.238-2.956-.047-3.074-.801-4.718-4.744-3.222-7.426h0Z"/><path class="bb" d="M1260.031,141.394c1.102,3.342,3.298,5.959,6.463,7.336,1.026,.463,2.116,.806,3.263,1.076-4.839,.639-9.844-3.434-9.727-8.412h0Z"/></g><g><path class="aa" d="M1283.952,160.068c.039,1.295,.739,2.48,1.851,3.145,3.479,2.08,9.773,5.066,18.104,5.323,8.647,.267,15.326-2.534,18.995-4.513,1.218-.657,1.977-1.928,1.991-3.312,.063-6.34-.696-15.895-4.886-26.523-3.067-7.78-7.046-13.784-10.463-18.063-1.336-1.673-3.789-1.896-5.436-.529-4.823,4.006-11.895,11.232-16.302,22.349-3.512,8.858-4.012,16.86-3.854,22.123Z"/><path class="bb" d="M1304.411,129.861c.672,17.038,.672,34.201,0,51.243-.672-17.043-.672-34.204,0-51.243h0Z"/><path class="bb" d="M1314.088,144.923c-.19,4.222-4.686,7.529-8.761,7.105,3.878-1.146,7.064-3.353,8.761-7.105h0Z"/><path class="bb" d="M1298.572,135.223c-.238,3.318,1.91,5.965,5.295,6.405-.807,.269-1.705,.25-2.553,.012-2.669-.652-4.118-4.138-2.742-6.417h0Z"/><path class="bb" d="M1295.531,153.811c1.338,3.902,4.381,6.275,8.337,7.21-4.116,.671-8.566-2.913-8.337-7.21h0Z"/></g><g><path class="ac" d="M1280.743,255.443c.026,.858,.489,1.642,1.226,2.083,2.304,1.378,6.473,3.355,11.99,3.526,5.727,.177,10.151-1.678,12.581-2.989,.807-.435,1.31-1.277,1.319-2.193,.041-4.199-.461-10.528-3.236-17.567-2.031-5.153-4.667-9.129-6.93-11.964-.885-1.108-2.51-1.256-3.6-.35-3.194,2.653-7.878,7.439-10.797,14.802-2.326,5.867-2.657,11.167-2.553,14.653Z"/><path class="bb" d="M1294.294,235.436c1.37,11.261,1.381,22.679,0,33.939-1.381-11.26-1.37-22.679,0-33.939h0Z"/><path class="bb" d="M1300.703,245.412c.128,2.874-3.07,5.253-5.802,4.706,2.536-1.022,4.423-2.301,5.802-4.706h0Z"/><path class="bb" d="M1290.426,238.987c.118,2.178,1.301,3.669,3.507,4.242-2.51,1.124-5.079-2.06-3.507-4.242h0Z"/><path class="bb" d="M1288.412,251.298c1.155,2.525,2.928,3.883,5.522,4.775-2.751,.731-5.954-1.901-5.522-4.775h0Z"/></g><g><path class="aw" d="M1192.48,291.211c.095,3.171,1.809,6.071,4.532,7.699,8.518,5.092,23.925,12.401,44.318,13.031,21.169,.654,37.519-6.204,46.501-11.049,2.982-1.609,4.841-4.719,4.874-8.107,.153-15.521-1.703-38.912-11.96-64.93-7.508-19.045-17.25-33.743-25.615-44.219-3.27-4.095-9.276-4.642-13.307-1.294-11.806,9.806-29.119,27.497-39.908,54.71-8.597,21.685-9.822,41.273-9.436,54.159Z"/><path class="bb" d="M1242.566,217.262c.664,40.305,.648,85.112,0,125.445-.648-40.341-.665-85.131,0-125.445h0Z"/><path class="bb" d="M1266.254,254.135c-1.618,10.053-11.548,17.248-21.447,17.394,1.208-.235,2.401-.495,3.564-.86,8.158-2.282,15.267-8.35,17.882-16.534h0Z"/><path class="bb" d="M1228.271,230.389c-1.646,8.546,4.309,15.598,12.962,15.68-8.981,1.61-16.321-7.153-12.962-15.68h0Z"/><path class="bb" d="M1220.825,275.893c1.828,8.36,8.534,15.004,16.835,16.934,1.166,.327,2.361,.547,3.573,.716-10.118,.399-19.729-7.34-20.408-17.65h0Z"/></g><g><path class="av" d="M1778.261,197.986c.026,.858,.489,1.642,1.226,2.083,2.304,1.378,6.473,3.355,11.99,3.526,5.727,.177,10.151-1.678,12.581-2.989,.807-.435,1.31-1.277,1.319-2.193,.041-4.199-.461-10.528-3.236-17.567-2.031-5.153-4.667-9.129-6.93-11.964-.885-1.108-2.51-1.256-3.6-.35-3.194,2.653-7.878,7.439-10.797,14.802-2.326,5.867-2.657,11.167-2.553,14.653Z"/><path class="bb" d="M1791.812,177.979c.682,11.277,.682,22.661,0,33.939-.682-11.28-.682-22.661,0-33.939h0Z"/><path class="bb" d="M1798.22,187.955c.128,2.874-3.07,5.253-5.802,4.706,2.535-1.022,4.423-2.301,5.802-4.706h0Z"/><path class="bb" d="M1787.944,181.53c.118,2.178,1.301,3.669,3.507,4.242-2.51,1.124-5.079-2.06-3.507-4.242h0Z"/><path class="bb" d="M1785.93,193.842c1.155,2.525,2.928,3.883,5.521,4.775-2.751,.731-5.954-1.901-5.521-4.775h0Z"/></g><g><path class="ax" d="M1740.429,207.066c.035,1.154,.658,2.209,1.649,2.802,3.1,1.853,8.707,4.513,16.128,4.742,7.703,.238,13.654-2.258,16.922-4.021,1.085-.585,1.762-1.717,1.774-2.95,.056-5.648-.62-14.16-4.352-23.628-2.732-6.93-6.277-12.279-9.321-16.092-1.19-1.49-3.375-1.689-4.842-.471-4.296,3.568-10.597,10.006-14.523,19.909-3.129,7.891-3.574,15.02-3.434,19.709Z"/><path class="bb" d="M1758.655,180.156c.672,15.176,.672,30.471,0,45.65-.672-15.181-.672-30.473,0-45.65h0Z"/><path class="bb" d="M1767.276,193.574c-.087,3.786-4.163,6.794-7.805,6.33,3.445-1.106,6.21-3.013,7.805-6.33h0Z"/><path class="bb" d="M1753.454,184.933c-.122,2.95,1.713,5.223,4.717,5.706-3.331,1.197-6.524-2.737-4.717-5.706h0Z"/><path class="bb" d="M1750.744,201.492c1.279,3.457,3.911,5.501,7.427,6.423-3.672,.702-7.735-2.616-7.427-6.423h0Z"/></g><g><path class="ay" d="M1764.058,223.061c.027,.898,.512,1.719,1.284,2.181,2.413,1.442,6.777,3.512,12.553,3.691,5.996,.185,10.627-1.757,13.171-3.129,.845-.456,1.371-1.337,1.381-2.296,.043-4.396-.482-11.021-3.388-18.391-2.127-5.394-4.886-9.557-7.255-12.525-.926-1.16-2.627-1.315-3.769-.367-3.344,2.777-8.248,7.788-11.304,15.496-2.435,6.142-2.782,11.69-2.673,15.34Z"/><path class="bb" d="M1778.244,202.116c.682,11.807,.682,23.722,0,35.531-.683-11.81-.682-23.723,0-35.531h0Z"/><path class="bb" d="M1784.954,212.559c.099,2.998-3.219,5.463-6.075,4.927,2.659-1.034,4.666-2.398,6.075-4.927h0Z"/><path class="bb" d="M1774.195,205.834c.086,2.283,1.357,3.88,3.671,4.441-2.622,1.134-5.275-2.152-3.671-4.441h0Z"/><path class="bb" d="M1772.086,218.722c1.172,2.652,3.061,4.103,5.78,4.999-2.876,.727-6.196-1.998-5.78-4.999h0Z"/></g></svg>