<?xml version="1.0" encoding="UTF-8"?><svg id="a" xmlns="http://www.w3.org/2000/svg" viewBox="0 0 1812.048 448.567"><defs><style>.b{fill:#f47920;}.c{fill:#f8ec00;}.d{fill:#f7911e;}.e{fill:#f7901e;}.f{fill:#e54a25;}.g{fill:#fff;}.h,.i{fill:#ffd500;}.j{fill:#665e9e;}.k,.l{fill:#e24b25;}.m{fill:#423996;}.n{fill:#463e98;}.o{fill:#484758;}.p,.q{fill:#4d469d;}.r{stroke-width:.5px;}.r,.s,.t,.q,.u{stroke-miterlimit:10;}.r,.t{fill:#7b709e;stroke:#7b709e;}.s{fill:#56519d;stroke:#56529d;}.q{stroke:#4d479d;}.u{fill:none;stroke:#231f20;stroke-width:2px;}.l{opacity:.62;}.i{opacity:.94;}</style></defs><path class="e" d="M851.891,17.264c1.002-.545,2.266-1.075,2.205-1.715-.134-1.402-6.53-2.244-10.597-1.91-12.879,1.058-18.998,13.946-19.259,14.517,1.971,1.576,4.234,3.65,6.477,6.314,2.851,3.385,4.791,6.678,6.103,9.338,1.57-5.432,3.499-9.772,5.11-12.916,3.89-7.593,5.835-11.389,9.96-13.63Z"/><path class="i" d="M859.091,220.387c7.002-8.918,31.683-42.555,28.892-90.095-3.862-65.797-57.012-101.428-62.963-105.273h0c7.041-21.96,5.481-23.752,5.481-23.752-3.078-3.536-12.629,.27-40.805,12.181-21.118,8.927-31.676,13.39-32.887,14.008-6.426,3.278-59.459,30.331-70.96,81.489-9.13,40.613,10.305,85.789,47.597,116.275l125.646-4.833Z"/><path class="g" d="M769.259,129.676c-9.665-12.181-10.955-28.799-3.347-41.514,6.307-10.54,18.091-17.332,30.87-17.109,12.585,.221,24.995,7.226,30.87,19.34,6.22,12.825,3.727,28.511-6.323,39.282h-52.069Z"/><circle class="o" cx="796.014" cy="105.547" r="16.499"/><path class="g" d="M706.935,67.562c2.415-.479,4.903-.71,7.431-.665,12.584,.221,24.995,7.226,30.87,19.34,6.22,12.825,3.727,28.511-6.323,39.282h-52.069c-.661-6.229-.951-16.61,2.708-28.621,4.52-14.835,12.758-24.585,17.383-29.336Z"/><circle class="o" cx="713.598" cy="101.39" r="16.499"/><path class="d" d="M660.449,100.363c-.066,4.636,.196,23.487,14.513,39.322,2.51,2.776,5.132,5.106,7.732,7.062,8.097,6.089,18.013,9.263,28.144,9.263h62.341c-.064-4.535-.846-22.321-14.72-37.696-7.566-8.385-16.185-12.904-22.837-15.35-4.77-1.754-9.822-2.6-14.903-2.6h-60.27Z"/><path class="k" d="M773.179,156.01c-.109,1.538-.556,4.907-2.864,8.361l-.07,.103c-2.501,3.685-6.786,5.75-11.239,5.681l-83.285-1.289c-.323-1.822-.804-5.973,1.015-10.696,2.169-5.63,6.264-8.588,7.766-9.57,1.207,.82,3.115,2.024,5.591,3.194,7.826,3.697,15.016,4.066,24.858,4.216,9.062,.138,13.593,.207,20.048-.049,8.964-.356,21.907-.597,38.179,.049Z"/><path class="k" d="M724.131,113.313h13.206c1.558,0,2.961,1.668,3.061,3.915,.009,.196,.009,.393,0,.592-.04,.947-.274,1.835-.653,2.566-.555,1.07-1.472,1.619-2.398,1.619h-13.181c-.389,0-.782-.08-1.138-.306-1.174-.748-1.935-2.472-1.859-4.308,.07-1.682,.831-3.164,1.919-3.812,.328-.195,.687-.265,1.042-.265Z"/><g><path class="s" d="M835.365,158.733c-.097-1.991-4.704-3.171-5.177-3.288-1.15-.284-5.228-1.293-8.48,.823-5.743,3.736-4.799,14.536-2.308,15.505,.887,.345,2.75-1.215,6.476-4.337,2.858-2.394,2.544-2.526,5.123-4.626,3.152-2.568,4.417-3.019,4.365-4.077Z"/><path class="r" d="M823.016,184.382c.695,.219,9.749,2.919,16.166-2.588,6.924-5.941,5.926-17.272,1.274-23.441-2.83-3.753-6.792-5.304-8.296-5.872-1.923-.726-6.46-2.44-11.759-.669-5.196,1.736-7.801,5.714-8.533,6.87-3.352,5.29-2.656,10.696-2.425,12.127-.053-.628-.095-1.573,.016-2.707,.398-4.096,2.667-9.597,7.274-11.759,1.562-.733,3.329-.928,6.864-1.317,1.901-.209,3.073-.339,4.542-.197,0,0,4.005,.387,7.325,2.84,5.124,3.785,8.472,13.539,3.514,20.708-3.376,4.882-9.697,7.255-15.962,6.005Z"/><path class="q" d="M871.742,116.85c1.665,.616,3.818,1.597,6.095,3.175,2.291,1.588,3.973,3.271,5.137,4.621-5.65,9.9-13.838,22.094-25.496,34.488-10.049,10.684-20.043,18.716-28.52,24.622-3.287-2.898-6.574-5.796-9.861-8.694,11.881-7.811,20.808-15.304,26.956-20.938,8.491-7.783,12.071-12.379,12.993-13.582,6.896-8.989,10.63-17.706,12.696-23.692Z"/><path class="p" d="M868.057,104.728c.865,1.016,2.198,2.841,3.035,5.459,.848,2.654,.811,4.942,.689,6.278-.962,1.202-2.576,3.052-4.89,4.958-3.426,2.821-7.297,5.991-11.015,4.919-.843-.243-2.559-.965-4.113-3.616,.123-1.709,.417-3.808,1.075-6.138,.58-2.053,1.304-3.796,1.997-5.201,.514-.811,1.188-1.741,2.06-2.699,.843-.926,1.677-1.665,2.414-2.243,.932-.464,2.141-.959,3.6-1.306,2.065-.491,3.863-.505,5.148-.41Z"/><path class="j" d="M868.057,104.728c8.265,.677,14.777,5.555,16.274,11.837,.893,3.746-.217,7.077-1.015,8.88-.96-1.425-2.456-3.311-4.668-5.108-2.584-2.1-5.119-3.244-6.868-3.873,.119-1.314,.141-3.368-.529-5.744-.817-2.901-2.278-4.911-3.195-5.992Z"/><path class="n" d="M871.594,116.696c-.766,2.639-2.058,6.495-4.214,10.885-4.356,8.869-9.555,14.24-19.803,24.593-11.817,11.936-19.916,17.453-22.56,19.205-2.384,1.58-4.436,2.819-5.92,3.684,1.162,1.426,2.625,3.021,4.434,4.631,1.925,1.713,3.792,3.042,5.427,4.063,3.583-2.451,7.166-4.901,10.749-7.352-.631,1.252-2.742,5.045-7.355,7.231-.631,.299-6.098,2.785-12.206,.516-6.051-2.248-11.476-8.697-10.686-16.051,.625-5.82,5.035-11.204,10.248-12.469,1.174-.285,2.209-.317,2.968-.285-.714,.486-4.193,2.963-5.131,7.715-.437,2.214-.111,4.185,.126,5.196,.382,1.633,.573,2.45,1.198,2.804,1.366,.775,3.776-1.05,8.997-5.352,4.284-3.53,6.425-5.295,7.588-6.369,2.743-2.534,7.055-6.523,11.733-11.696,8.993-9.944,15.649-20.194,19.076-25.791,.549-.386,1.116-.819,1.69-1.305,1.533-1.298,2.725-2.641,3.641-3.853Z"/><path class="m" d="M866.03,122.126c-.414,.33-1.004,.788-1.734,1.305-.847,.6-1.815,1.234-2.388,1.56-1.079,.615-3.513,2.002-6.032,1.351-2.499-.646-3.779-2.96-4.113-3.616-.129,.452-1.335,4.939,1.581,8.49,1.674,2.039,3.844,2.717,4.724,2.939,1.465-1.961,2.955-4.073,4.441-6.339,1.277-1.946,2.448-3.848,3.521-5.69Z"/><path class="t" d="M884.031,123.5c1.35-2.574,2.714-6.336,1.562-9.991-3.126-9.921-23.145-13.861-30.406-6.815-1.921,1.864-2.827,4.804-4.638,10.684-1.656,5.377-2.46,8.123-1.236,10.908,1.748,3.977,6.387,5.42,8.163,5.87-1.556-.556-3.887-1.686-5.351-4.015-2.369-3.771-.95-8.276,.712-13.554,1.433-4.548,2.37-7.523,5.377-9.779,3.349-2.513,7.109-2.516,9.049-2.518,1.829-.001,9.137-.007,13.818,5.942,4.401,5.595,3.159,12.237,2.949,13.267Z"/></g><path class="h" d="M218.887,223.635c6.855-8.631,31.986-42.371,28.892-90.095-2.028-31.288-15.233-53.855-22.362-64.329,4.036-1.85,10.451-5.603,14.937-12.794,3.528-5.655,7.695-16.373,3.426-21.149-2.786-3.116-8.115-2.526-9.84-2.358-13.442,1.312-48.006,.474-97.106-1.697-44.344,5.618-80.741,38.003-91.188,80.979-10.826,44.532,8.36,91.596,47.597,116.275l125.646-4.833Z"/><path class="e" d="M240.268,57.408c3.041-.13,6.491-.085,10.259,.295,1.292,.13,2.536,.291,3.729,.474,1.841,.283,3.26,1.785,3.446,3.639,.28,2.789,.167,6.635-1.558,10.654-5.098,11.874-19.262,13.579-19.887,13.644-.868-2.37-2.115-5.174-3.927-8.149-2.303-3.779-4.809-6.666-6.914-8.755,2.191-1.029,4.846-2.511,7.613-4.642,3.224-2.482,5.585-5.061,7.238-7.161Z"/><path class="c" d="M124.84,57.342h26.828c3.22,0,6.06,2.455,6.179,5.673,.008,.215,.006,.432-.008,.65-.07,1.147-.433,2.231-1.025,3.167-1.097,1.732-3.074,2.705-5.124,2.705h-26.778c-.869,0-1.743-.153-2.524-.534-2.253-1.1-3.696-3.447-3.547-5.94,.143-2.394,1.729-4.499,3.988-5.387,.637-.25,1.327-.334,2.011-.334Z"/><path class="g" d="M111.281,133.252c-9.665-12.181-10.955-28.799-3.347-41.514,6.307-10.54,18.091-17.332,30.87-17.109,12.585,.221,24.995,7.226,30.87,19.34,6.22,12.825,3.727,28.511-6.323,39.282h-52.069Z"/><circle class="o" cx="138.035" cy="109.123" r="16.499"/><path class="l" d="M62.88,116.556h13.206c1.558,0,2.961,1.668,3.061,3.915,.009,.196,.009,.393,0,.592-.04,.947-.274,1.835-.653,2.566-.555,1.07-1.472,1.619-2.398,1.619h-13.181c-.389,0-.782-.08-1.138-.306-1.174-.748-1.935-2.472-1.859-4.308,.07-1.682,.831-3.164,1.919-3.812,.328-.195,.687-.265,1.042-.265Z"/><path class="f" d="M159.805,371.666c-2.033,6.945-3.922,15.625-4.678,25.713-1.066,14.209,.485,26.274,2.344,35.109l-28.9,.238c-4.948,.041-9.067,4.236-8.557,9.157,.027,.26,.065,.521,.116,.779l.021,.102c.707,3.425,3.85,5.803,7.348,5.803h69.21c3.929,0,7.363-2.88,7.804-6.784,.005-.041,.009-.081,.013-.122,.026-.264,.042-.523,.046-.778,.085-4.535-3.771-8.175-8.306-8.226l-21.729-.243c-2.392-6.611-5.527-17.899-4.838-32.084,.613-12.605,4.004-22.518,6.666-28.685-5.519,.007-11.039,.014-16.558,.021Z"/><path class="h" d="M129.602,221.611h115.119c23.473,0,45.604,12.764,58.287,34.403,9.039,15.423,13.202,33.746,10.997,51.937-.986,8.139-3.211,15.952-6.489,23.21-11.611,25.713-35.924,41.587-62.109,41.587h-115.757c-36.754,0-67.7-31.198-69.638-71.41-.033-.694-.058-1.389-.075-2.086-.087-3.653,.062-7.272,.432-10.837,3.977-38.248,34.096-66.805,69.233-66.805Z"/><path class="e" d="M215.987,215.961c15.551-18.485,22.365-30.612,25.685-38.403,1.025-2.407,6.737-9.628,10.641-21.013,.868-2.531,2.219-6.915,6.273-9.552,0,0,3.484-2.266,8.075-2.106,12.03,.419,22.805,31.608,24.224,35.809,5.526,16.363,11.904,41.526,12.49,75.029-7.324-8.178-21.86-22.186-44.578-31.278-17.315-6.93-32.787-8.364-42.809-8.485Z"/><g><path class="s" d="M169.955,158.163c-.097-1.991-4.704-3.171-5.177-3.288-1.15-.284-5.228-1.293-8.48,.823-5.743,3.736-4.799,14.536-2.308,15.505,.887,.345,2.75-1.215,6.476-4.337,2.858-2.394,2.544-2.526,5.123-4.626,3.152-2.568,4.417-3.019,4.365-4.077Z"/><path class="r" d="M157.606,183.812c.695,.219,9.749,2.919,16.166-2.588,6.924-5.941,5.926-17.272,1.274-23.441-2.83-3.753-6.792-5.304-8.296-5.872-1.923-.726-6.46-2.44-11.759-.669-5.196,1.736-7.801,5.714-8.533,6.87-3.352,5.29-2.656,10.696-2.425,12.127-.053-.628-.095-1.573,.016-2.707,.398-4.096,2.667-9.597,7.274-11.759,1.562-.733,3.329-.928,6.864-1.317,1.901-.209,3.073-.339,4.542-.197,0,0,4.005,.387,7.325,2.84,5.124,3.785,8.472,13.539,3.514,20.708-3.376,4.882-9.697,7.255-15.962,6.005Z"/><path class="q" d="M206.332,116.28c1.665,.616,3.818,1.597,6.095,3.175,2.291,1.588,3.973,3.271,5.137,4.621-5.65,9.9-13.838,22.094-25.496,34.488-10.049,10.684-20.043,18.716-28.52,24.622-3.287-2.898-6.574-5.796-9.861-8.694,11.881-7.811,20.808-15.304,26.956-20.938,8.491-7.783,12.071-12.379,12.993-13.582,6.896-8.989,10.63-17.706,12.696-23.692Z"/><path class="p" d="M202.647,104.158c.865,1.016,2.198,2.841,3.035,5.459,.848,2.654,.811,4.942,.689,6.278-.962,1.202-2.576,3.052-4.89,4.958-3.426,2.821-7.297,5.991-11.015,4.919-.843-.243-2.559-.965-4.113-3.616,.123-1.709,.417-3.808,1.075-6.138,.58-2.053,1.304-3.796,1.997-5.201,.514-.811,1.188-1.741,2.06-2.699,.843-.926,1.677-1.665,2.414-2.243,.932-.464,2.141-.959,3.6-1.306,2.065-.491,3.863-.505,5.148-.41Z"/><path class="j" d="M202.647,104.158c8.265,.677,14.777,5.555,16.274,11.837,.893,3.746-.217,7.077-1.015,8.88-.96-1.425-2.456-3.311-4.668-5.108-2.584-2.1-5.119-3.244-6.868-3.873,.119-1.314,.141-3.368-.529-5.744-.817-2.901-2.278-4.911-3.195-5.992Z"/><path class="n" d="M206.183,116.126c-.766,2.639-2.058,6.495-4.214,10.885-4.356,8.869-9.555,14.24-19.803,24.593-11.817,11.936-19.916,17.453-22.56,19.205-2.384,1.58-4.436,2.819-5.92,3.684,1.162,1.426,2.625,3.021,4.434,4.631,1.925,1.713,3.792,3.042,5.427,4.063,3.583-2.451,7.166-4.901,10.749-7.352-.631,1.252-2.742,5.045-7.355,7.231-.631,.299-6.098,2.785-12.206,.516-6.051-2.248-11.476-8.697-10.686-16.051,.625-5.82,5.035-11.204,10.248-12.469,1.174-.285,2.209-.317,2.968-.285-.714,.486-4.193,2.963-5.131,7.715-.437,2.214-.111,4.185,.126,5.196,.382,1.633,.573,2.45,1.198,2.804,1.366,.775,3.776-1.05,8.997-5.352,4.284-3.53,6.425-5.295,7.588-6.369,2.743-2.534,7.055-6.523,11.733-11.696,8.993-9.944,15.649-20.194,19.076-25.791,.549-.386,1.116-.819,1.69-1.305,1.533-1.298,2.725-2.641,3.641-3.853Z"/><path class="m" d="M200.62,121.556c-.414,.33-1.004,.788-1.734,1.305-.847,.6-1.815,1.234-2.388,1.56-1.079,.615-3.513,2.002-6.032,1.351-2.499-.646-3.779-2.96-4.113-3.616-.129,.452-1.335,4.939,1.581,8.49,1.674,2.039,3.844,2.717,4.724,2.939,1.465-1.961,2.955-4.073,4.441-6.339,1.277-1.946,2.448-3.848,3.521-5.69Z"/><path class="t" d="M218.621,122.93c1.35-2.574,2.714-6.336,1.562-9.991-3.126-9.921-23.145-13.861-30.406-6.815-1.921,1.864-2.827,4.804-4.638,10.684-1.656,5.377-2.46,8.123-1.236,10.908,1.748,3.977,6.387,5.42,8.163,5.87-1.556-.556-3.887-1.686-5.351-4.015-2.369-3.771-.95-8.276,.712-13.554,1.433-4.548,2.37-7.523,5.377-9.779,3.349-2.513,7.109-2.516,9.049-2.518,1.829-.001,9.137-.007,13.818,5.942,4.401,5.595,3.159,12.237,2.949,13.267Z"/></g><path class="b" d="M199.444,372.77c-1.855,4.442-4.179,11.632-4.202,20.679-.015,5.688,.885,34.508,1.868,38.142l-28.9,.238c-4.948,.041-9.066,4.236-8.557,9.157,.027,.261,.065,.521,.116,.779,.007,.034,.013,.068,.02,.102,.706,3.425,3.85,5.803,7.348,5.803h69.21c3.929,0,7.363-2.88,7.804-6.784,.005-.04,.009-.081,.013-.122,.026-.264,.042-.523,.046-.778,.085-4.535-3.771-8.175-8.306-8.226-7.243-.081-14.486-.162-21.729-.243-1.021-3.56-1.965-32.232-2.066-37.739-.168-9.174,2.082-16.509,3.894-21.03l-16.558,.021Z"/><path class="u" d="M422.093,323.965c16.011-37.403,36.492-55.449,52.01-65.006,18.965-11.68,32.15-11.684,58.098-25.082,25.939-13.393,44.121-29.58,55.136-40.742"/><path class="u" d="M149.436,184.528c45.263,49.4,83.735,62.705,111.768,64.854,16.441,1.261,34.573-.911,54.385,10.308,23.241,13.161,35.031,36.953,41.436,55.928"/><path class="c" d="M183.457,131.892c-10.175,10.997-26.841,32.147-34.387,62.962-.802,3.277-17.948,78.13,29.399,122.148,7.25,6.74,35.171,32.698,66.127,23.638,24.014-7.029,38.456-31.795,41.883-52.707,2.334-14.244-.534-26.135-2.721-32.821-33.434-41.073-66.867-82.147-100.301-123.22Z"/><path class="d" d="M.006,104.35c-.066,4.636,.196,23.487,14.513,39.322,2.51,2.776,5.132,5.106,7.732,7.062,8.097,6.089,18.013,9.263,28.144,9.263h62.341c-.064-4.535-.846-22.321-14.72-37.696-7.566-8.385-16.185-12.904-22.837-15.35-4.77-1.754-9.822-2.6-14.903-2.6H.006Z"/><path class="k" d="M112.736,159.997c-.109,1.538-.556,4.907-2.864,8.361l-.07,.103c-2.501,3.685-6.786,5.75-11.239,5.681l-83.285-1.289c-.323-1.822-.804-5.973,1.015-10.696,2.169-5.63,6.264-8.588,7.766-9.57,1.207,.82,3.115,2.024,5.591,3.194,7.826,3.697,15.016,4.066,24.858,4.216,9.062,.138,13.593,.207,20.048-.049,8.964-.356,21.907-.597,38.179,.049Z"/><path class="k" d="M63.688,117.301h13.206c1.558,0,2.961,1.668,3.061,3.915,.009,.196,.009,.393,0,.592-.04,.947-.274,1.835-.653,2.566-.555,1.07-1.472,1.619-2.398,1.619h-13.181c-.389,0-.782-.08-1.138-.306-1.174-.748-1.935-2.472-1.859-4.308,.07-1.682,.831-3.164,1.919-3.812,.328-.195,.687-.265,1.042-.265Z"/><path class="f" d="M771.805,371.666c-2.033,6.945-3.922,15.625-4.678,25.713-1.066,14.209,.485,26.274,2.344,35.109l-28.9,.238c-4.948,.041-9.067,4.236-8.557,9.157,.027,.26,.065,.521,.116,.779l.021,.102c.707,3.425,3.85,5.803,7.348,5.803h69.21c3.929,0,7.363-2.88,7.804-6.784,.005-.041,.009-.081,.013-.122,.026-.264,.042-.523,.046-.778,.085-4.535-3.771-8.175-8.306-8.226l-21.729-.243c-2.392-6.611-5.527-17.899-4.838-32.084,.613-12.605,4.004-22.518,6.666-28.685-5.519,.007-11.039,.014-16.558,.021Z"/><path class="h" d="M741.602,221.611h115.119c23.473,0,45.604,12.764,58.287,34.403,9.039,15.423,13.202,33.746,10.997,51.937-.986,8.139-3.211,15.952-6.489,23.21-11.611,25.713-35.924,41.587-62.109,41.587h-115.757c-36.754,0-67.7-31.198-69.638-71.41-.033-.694-.058-1.389-.075-2.086-.087-3.653,.062-7.272,.432-10.837,3.977-38.248,34.096-66.805,69.233-66.805Z"/><path class="e" d="M827.987,215.961c15.551-18.485,22.365-30.612,25.685-38.403,1.025-2.407,6.737-9.628,10.641-21.013,.868-2.531,2.219-6.915,6.273-9.552,0,0,3.484-2.266,8.075-2.106,12.03,.419,22.805,31.608,24.224,35.809,5.526,16.363,11.904,41.526,12.49,75.029-7.324-8.178-21.86-22.186-44.578-31.278-17.315-6.93-32.787-8.364-42.809-8.485Z"/><path class="b" d="M811.444,372.77c-1.855,4.442-4.179,11.632-4.202,20.679-.015,5.688,.885,34.508,1.868,38.142l-28.9,.238c-4.948,.041-9.066,4.236-8.557,9.157,.027,.261,.065,.521,.116,.779,.007,.034,.013,.068,.02,.102,.706,3.425,3.85,5.803,7.348,5.803h69.21c3.929,0,7.363-2.88,7.804-6.784,.005-.04,.009-.081,.013-.122,.026-.264,.042-.523,.046-.778,.085-4.535-3.771-8.175-8.306-8.226-7.243-.081-14.486-.162-21.729-.243-1.021-3.56-1.965-32.232-2.066-37.739-.168-9.174,2.082-16.509,3.894-21.03l-16.558,.021Z"/><path class="u" d="M1034.093,323.965c16.011-37.403,36.492-55.449,52.01-65.006,18.965-11.68,32.15-11.684,58.098-25.082,25.939-13.393,44.121-29.58,55.136-40.742"/><path class="u" d="M817.446,184.528c33.05,49.4,61.142,62.705,81.611,64.854,12.005,1.261,25.245-.911,39.711,10.308,16.97,13.161,25.579,36.953,30.256,55.928"/><path class="c" d="M855.13,126.555c-10.175,10.997-26.841,32.147-34.387,62.962-.802,3.277-17.948,78.13,29.399,122.148,7.25,6.74,35.171,32.698,66.127,23.638,24.014-7.029,38.456-31.795,41.883-52.707,2.334-14.244-.534-26.135-2.721-32.821-33.434-41.073-66.867-82.147-100.301-123.22Z"/><path class="f" d="M1383.805,371.666c-2.033,6.945-3.922,15.625-4.678,25.713-1.066,14.209,.485,26.274,2.344,35.109l-28.9,.238c-4.948,.041-9.067,4.236-8.557,9.157,.027,.26,.065,.521,.116,.779l.021,.102c.707,3.425,3.85,5.803,7.348,5.803h69.21c3.929,0,7.363-2.88,7.804-6.784,.005-.041,.009-.081,.013-.122,.026-.264,.042-.523,.046-.778,.085-4.535-3.771-8.175-8.306-8.226l-21.729-.243c-2.392-6.611-5.527-17.899-4.838-32.084,.613-12.605,4.004-22.518,6.666-28.685-5.519,.007-11.039,.014-16.558,.021Z"/><path class="h" d="M1353.602,221.611h115.119c23.473,0,45.604,12.764,58.287,34.403,9.039,15.423,13.202,33.746,10.997,51.937-.986,8.139-3.211,15.952-6.489,23.21-11.611,25.713-35.924,41.587-62.109,41.587h-115.757c-36.754,0-67.7-31.198-69.638-71.41-.033-.694-.058-1.389-.075-2.086-.087-3.653,.062-7.272,.432-10.837,3.977-38.248,34.096-66.805,69.233-66.805Z"/><path class="e" d="M1439.987,215.961c15.551-18.485,22.365-30.612,25.685-38.403,1.025-2.407,6.737-9.628,10.641-21.013,.868-2.531,2.219-6.915,6.273-9.552,0,0,3.484-2.266,8.075-2.106,12.03,.419,22.805,31.608,24.224,35.809,5.526,16.363,11.904,41.526,12.49,75.029-7.324-8.178-21.86-22.186-44.578-31.278-17.315-6.93-32.787-8.364-42.809-8.485Z"/><path class="b" d="M1423.444,372.77c-1.855,4.442-4.179,11.632-4.202,20.679-.015,5.688,.885,34.508,1.868,38.142l-28.9,.238c-4.948,.041-9.066,4.236-8.557,9.157,.027,.261,.065,.521,.116,.779,.007,.034,.013,.068,.02,.102,.706,3.425,3.85,5.803,7.348,5.803h69.21c3.929,0,7.363-2.88,7.804-6.784,.005-.04,.009-.081,.013-.122,.026-.264,.042-.523,.046-.778,.085-4.535-3.771-8.175-8.306-8.226-7.243-.081-14.486-.162-21.729-.243-1.021-3.56-1.965-32.232-2.066-37.739-.168-9.174,2.082-16.509,3.894-21.03l-16.558,.021Z"/><path class="u" d="M1646.093,323.965c16.011-37.403,36.492-55.449,52.01-65.006,18.965-11.68,32.15-11.684,58.098-25.082,25.939-13.393,44.121-29.58,55.136-40.742"/><g><path class="e" d="M1441.44,8.511c-.301-1.089-.792-2.357-.292-2.745,1.123-.87,6.36,3.38,8.682,6.333,7.183,9.139,1.349,24.827-.363,29.078-.741-1.701-2.568-5.254-5.754-5.809-.721-.126-1.308,.044-3.322,.299-2.958,.375-5.513,.99-7.585,1.619,2.811-4.799,4.592-9.119,5.735-12.402,2.76-7.928,4.14-11.892,2.9-16.374Z"/><path class="h" d="M1482.89,84.685c-12.535-26.346-29.718-42.552-34.33-46.763-16.164-26.737-22.779-33.015-25.344-31.899-2.638,1.147,.497,9.466-4.807,16.605-3.879,5.221-9.763,6.435-16.605,8.302-10.757,2.935-20.758,8.239-31.462,11.361"/><path class="h" d="M1464.594,225.427c27.342-18.866,45.262-50.412,45.262-86.144,0-57.761-46.825-104.586-104.586-104.586s-104.586,46.825-104.586,104.586c0,38.721,21.043,72.528,52.316,90.608l111.595-4.463Z"/></g><g><path class="g" d="M1420.16,130.586c-9.665-12.181-10.955-28.799-3.347-41.514,6.307-10.54,18.091-17.332,30.87-17.109,12.585,.221,24.995,7.226,30.87,19.34,6.22,12.825,3.727,28.511-6.323,39.282h-52.069Z"/><circle class="o" cx="1446.914" cy="106.457" r="16.499"/></g><g><path class="g" d="M1333.634,133.394c-9.665-12.181-10.955-28.799-3.347-41.514,6.307-10.54,18.091-17.332,30.87-17.109,12.585,.221,24.995,7.226,30.87,19.34,6.22,12.825,3.727,28.511-6.323,39.282h-52.069Z"/><circle class="o" cx="1360.388" cy="109.265" r="16.499"/></g><path class="d" d="M1366.518,176.232h77.668c6.994,0,9.63-9.152,3.707-12.872l-43.675-27.431-41.604,27.196c-5.936,3.881-3.189,13.106,3.904,13.106Z"/><path class="k" d="M1363.352,176.232h81.128l-21.775,17.156c-1.805,1.422-4.036,2.196-6.335,2.196h-20.152c-2.02,0-3.996-.586-5.69-1.687l-27.177-17.665Z"/><path class="k" d="M1410.968,147.663l10.947,6.564c.955,.572,1.668,1.947,1.553,3.278-.012,.143-.033,.284-.062,.423-.027,.127-.06,.249-.099,.365-.414,1.223-1.543,1.579-2.539,.98-3.742-2.253-7.484-4.506-11.225-6.758-.603-.363-1.139-1.037-1.358-1.887-.181-.702-.183-1.437,.019-2.045,.422-1.273,1.654-1.746,2.764-.92Z"/><path class="k" d="M1387.363,159.146l10.947-6.564c.955-.572,1.668-1.947,1.553-3.278-.012-.143-.033-.284-.062-.423-.027-.127-.06-.249-.099-.365-.414-1.223-1.543-1.579-2.539-.98-3.742,2.253-7.484,4.506-11.225,6.758-.603,.363-1.139,1.037-1.358,1.887-.181,.702-.183,1.437,.019,2.045,.422,1.273,1.654,1.746,2.764,.92Z"/><g><path class="s" d="M1498.496,165.708c-.999-1.725-5.634-.661-6.108-.548-1.153,.275-5.238,1.248-7.159,4.619-3.391,5.953,2.4,15.118,5.058,14.838,.946-.1,1.886-2.341,3.767-6.823,1.443-3.438,1.103-3.411,2.432-6.46,1.624-3.727,2.541-4.708,2.009-5.625Z"/><path class="r" d="M1499.281,194.164c.718-.124,10.002-1.876,13.18-9.712,3.429-8.455-2.653-18.066-9.615-21.416-4.235-2.038-8.468-1.6-10.065-1.415-2.042,.236-6.86,.794-10.757,4.797-3.822,3.925-4.312,8.655-4.433,10.017-.553,6.238,2.544,10.723,3.405,11.889-.335-.534-.805-1.355-1.227-2.413-1.524-3.822-2.03-9.752,1.073-13.785,1.052-1.368,2.534-2.351,5.496-4.318,1.594-1.058,2.576-1.71,3.946-2.257,0,0,3.737-1.492,7.812-.835,6.289,1.014,13.736,8.148,12.617,16.792-.762,5.886-5.292,10.894-11.432,12.655Z"/><path class="q" d="M1511.621,111.808c1.762-.216,4.126-.331,6.872,.027,2.764,.361,5.03,1.086,6.684,1.751-.482,11.388-2.168,25.979-6.846,42.34-4.032,14.102-9.231,25.823-14.057,34.958-4.25-1.068-8.499-2.137-12.749-3.205,6.977-12.389,11.476-23.141,14.356-30.967,3.978-10.81,5.051-16.536,5.32-18.028,2.007-11.15,1.328-20.609,.42-26.876Z"/><path class="p" d="M1502.788,102.725c1.235,.507,3.256,1.517,5.2,3.46,1.971,1.969,2.986,4.021,3.491,5.263-.303,1.51-.89,3.893-2.073,6.648-1.751,4.078-3.738,8.669-7.533,9.422-.861,.171-2.717,.316-5.313-1.327-.675-1.575-1.375-3.575-1.859-5.948-.426-2.09-.581-3.971-.61-5.538,.086-.956,.258-2.092,.593-3.344,.324-1.21,.727-2.248,1.117-3.1,.616-.84,1.463-1.834,2.601-2.811,1.61-1.383,3.202-2.22,4.387-2.724Z"/><path class="j" d="M1502.788,102.725c7.655-3.188,15.679-1.839,19.89,3.058,2.511,2.92,3.052,6.388,3.17,8.357-1.506-.826-3.701-1.816-6.49-2.399-3.259-.681-6.036-.536-7.879-.293-.497-1.222-1.419-3.057-3.104-4.863-2.056-2.204-4.276-3.32-5.587-3.86Z"/><path class="n" d="M1511.418,111.74c.529,2.697,1.149,6.715,1.246,11.605,.195,9.879-1.962,17.036-6.323,30.935-5.029,16.026-9.697,24.641-11.244,27.411-1.394,2.497-2.65,4.539-3.572,5.988,1.687,.734,3.718,1.481,6.064,2.082,2.496,.64,4.765,.965,6.686,1.123,2.061-3.821,4.121-7.641,6.182-11.462,.014,1.402-.124,5.74-3.221,9.799-.423,.555-4.143,5.271-10.611,6.055-6.408,.777-14.186-2.467-16.856-9.365-2.113-5.459-.662-12.266,3.39-15.78,.913-.791,1.817-1.295,2.507-1.615-.412,.76-2.368,4.555-1.022,9.209,.627,2.168,1.82,3.77,2.494,4.56,1.088,1.276,1.632,1.915,2.351,1.943,1.569,.062,2.875-2.665,5.542-8.881,2.188-5.101,3.283-7.651,3.824-9.139,1.276-3.509,3.279-9.032,5.065-15.774,3.432-12.961,4.648-25.121,5.128-31.666,.311-.595,.616-1.24,.903-1.935,.767-1.857,1.211-3.596,1.469-5.094Z"/><path class="m" d="M1508.963,119.116c-.216,.483-.532,1.16-.943,1.954-.477,.921-1.048,1.929-1.407,2.481-.677,1.041-2.204,3.39-4.741,3.966-2.517,.572-4.716-.898-5.313-1.327,.092,.461,1.078,5.002,5.297,6.82,2.423,1.044,4.662,.652,5.546,.446,.403-2.415,.758-4.975,1.04-7.67,.242-2.315,.411-4.542,.521-6.671Z"/><path class="t" d="M1525.591,112.083c.02-2.906-.493-6.875-3.193-9.595-7.327-7.383-26.924-1.706-30.147,7.884-.853,2.537-.309,5.565,.777,11.622,.993,5.538,1.538,8.347,3.903,10.26,3.376,2.733,8.161,1.888,9.946,1.474-1.638,.22-4.228,.284-6.596-1.115-3.835-2.265-4.639-6.919-5.581-12.372-.812-4.698-1.343-7.772,.295-11.156,1.824-3.769,5.164-5.496,6.887-6.386,1.625-.84,8.117-4.195,15.004-1.054,6.477,2.954,8.419,9.427,8.704,10.438Z"/></g><path class="u" d="M1479.768,185.912c5.221,41.597,19.284,57.073,31.289,63.471,14.122,7.526,25.219,2.397,39.711,10.308,20.064,10.953,27.284,36.338,30.256,55.928"/><path class="c" d="M1505.596,153.383c-9.501,5.659-25.645,17.589-36.897,41.008-1.196,2.49-27.659,59.804-1.114,114.221,4.064,8.332,19.718,40.423,44.096,43.902,18.911,2.699,34.095-13.102,40.489-29.605,4.355-11.241,4.459-22.363,4.096-28.823-16.89-46.901-33.78-93.802-50.671-140.703Z"/></svg>