<svg id="Layer_1" data-name="Layer 1" xmlns="http://www.w3.org/2000/svg" viewBox="0 0 363.891 31.777"><defs><style>.cls-1{fill:#fff;}.cls-2{fill:#231f20;}.cls-3{fill:#884f2c;}</style></defs><path class="cls-1" d="M252.539,25.363A45.7,45.7,0,0,0,197.433,9.984c1.152,2.325,7.576,14.721,22.519,19.589C236.744,35.044,250.646,26.562,252.539,25.363Z" transform="translate(-3.306 -1.866)"/><path class="cls-2" d="M252.539,25.363C239.213,9.969,217.233,4.14,198.414,12.278l1.255-3.4c10.167,19.87,33.146,26.179,52.87,16.486Zm0,0c-19.526,14.59-46.563,7.3-57.341-14.272l-1.191-2.37,2.446-1.03c20.08-8.713,45.024-1.446,56.086,17.672Z" transform="translate(-3.306 -1.866)"/><path class="cls-1" d="M308.665,25.446a45.7,45.7,0,0,1,55.106-15.379c-1.151,2.326-7.575,14.721-22.518,19.59C324.46,35.127,310.558,26.646,308.665,25.446Z" transform="translate(-3.306 -1.866)"/><path class="cls-2" d="M308.665,25.446C319.73,6.326,344.671-.938,364.752,7.774L367.2,8.8l-1.192,2.37c-10.781,21.582-37.821,28.859-57.341,14.272Zm0,0c19.731,9.7,42.706,3.379,52.871-16.485l1.254,3.4c-18.821-8.138-40.8-2.308-54.125,13.085Z" transform="translate(-3.306 -1.866)"/><circle class="cls-2" cx="328.652" cy="18.056" r="10.025"/><circle class="cls-1" cx="333.206" cy="14.568" r="2.544"/><circle class="cls-2" cx="226.064" cy="18.012" r="10.764"/><circle class="cls-1" cx="221.415" cy="15.403" r="2.725"/><path class="cls-2" d="M309.751,16.768c2.826-7.776,10.229-14.376,18.773-14.82a65.934,65.934,0,0,1,24.143,3.017c-4.067-.113-8.056-.266-12.037-.276-3.9.046-8,0-11.87.247-7.927.4-14.227,5.7-19.009,11.832Z" transform="translate(-3.306 -1.866)"/><path class="cls-2" d="M251.684,17.253C246.905,11.12,240.6,5.818,232.676,5.422c-3.866-.242-7.967-.2-11.87-.248-3.981.011-7.971.163-12.037.277a65.91,65.91,0,0,1,24.143-3.018c8.543.444,15.947,7.045,18.772,14.82Z" transform="translate(-3.306 -1.866)"/><path class="cls-3" d="M3.306,9.85c1.152,2.325,7.576,14.721,22.519,19.589,16.792,5.471,30.694-3.011,32.587-4.211" transform="translate(-3.306 -1.866)"/><path class="cls-2" d="M3.306,9.85C12.732,22.436,27.222,30.4,43.062,28.821a58.351,58.351,0,0,0,15.35-3.593,28.917,28.917,0,0,1-6.829,4.645C33.234,39.364,9.223,29.764,3.306,9.85Z" transform="translate(-3.306 -1.866)"/><path class="cls-3" d="M169.644,9.933c-1.151,2.325-7.575,14.721-22.518,19.589-16.793,5.471-30.7-3.011-32.588-4.21" transform="translate(-3.306 -1.866)"/><path class="cls-2" d="M169.644,9.933c-5.922,19.92-29.928,29.512-48.277,20.024a28.968,28.968,0,0,1-6.829-4.645,58.388,58.388,0,0,0,15.35,3.592c15.842,1.575,30.33-6.385,39.756-18.971Z" transform="translate(-3.306 -1.866)"/></svg>