<svg id="Layer_1" data-name="Layer 1" xmlns="http://www.w3.org/2000/svg" viewBox="0 0 596.711 805.876"><defs><style>.cls-1{fill:#884f2c;}.cls-1,.cls-10,.cls-11,.cls-12,.cls-13,.cls-14,.cls-15,.cls-2,.cls-3,.cls-4,.cls-6,.cls-7,.cls-8,.cls-9{stroke:#231f20;stroke-miterlimit:10;}.cls-1,.cls-10,.cls-12,.cls-14,.cls-15,.cls-2,.cls-4,.cls-7,.cls-8{stroke-width:2px;}.cls-2{fill:#305428;}.cls-13,.cls-3,.cls-5{fill:#231f20;}.cls-3{stroke-width:0.75px;}.cls-4,.cls-6{fill:none;}.cls-6{stroke-width:3px;}.cls-7{fill:#741547;}.cls-8{fill:#d3b02a;}.cls-9{fill:#901c54;}.cls-10{fill:#bb4c27;}.cls-11{fill:#1a4072;}.cls-12{fill:#238acb;}.cls-13{stroke-width:0.5px;}.cls-14{fill:#731446;}.cls-15{fill:#178acb;}</style></defs><path class="cls-1" d="M227.84,531.819c-1.673,9.155-5.466,22.49-15.3,34.624-14.952,18.444-33.2,20.958-72.892,33.239-44.991,13.92-71.52,22.338-96.216,40.236A169.244,169.244,0,0,0,.752,685.383V845.462H595.463v-200.1a649.456,649.456,0,0,0-108.855-43.349c-41.175-12.136-74.031-17.144-100.882-46.067A120.316,120.316,0,0,1,362.79,519.72Z" transform="translate(0.248 -44.683)"/><path class="cls-1" d="M186.007,425.086a194.848,194.848,0,0,1,11.94-70.617,196.86,196.86,0,0,1,55.266-79.829,162,162,0,0,1,82.217,31.045c45.1,33.565,57.738,80.409,60.881,93.936,4.208,42.594-6.6,72.562-13.051,86.914-7.991,17.779-17.4,29.634-36.1,53.18-17.73,22.329-26.8,33.554-36.975,36.5-31.1,9.007-66.532-29.018-76.76-39.994C197.384,497.545,188.521,450.713,186.007,425.086Z" transform="translate(0.248 -44.683)"/><path class="cls-2" d="M185.739,426.63c-5.057,2.159-17.268-18.256-43.877-59.231-38.033-58.567-42.272-66.736-46.322-80.063a165.094,165.094,0,0,1-5.433-68.911C102.141,128.242,190.557,71.365,221.5,66.172c4.773-.8,20.379-5.988,39.932-10.474,13.455-3.087,38.384-8.806,53.025-9.82C360.346,42.7,399.829,79.2,412.65,91.047c28.99,26.8,40.929,58.014,64.808,120.451,9.995,26.134,12.247,37.622,11.783,50.406-.636,17.557-11.859,37.232-34.04,76.591a142.752,142.752,0,0,1-13.237,19.81c-2.451,3.065-4.926,5.852-9.877,11.426-9.942,11.192-9.021,9.49-12.917,14.192-6.773,8.176-14.6,19.413-18.02,22.645a35.651,35.651,0,0,0-3.667,3.668c-1.251,1.477-1.36,1.888-1.7,1.86-1.5-.122-1.186-8-3.693-18.068,0,0-.648-2.6-2.3-7.486-11.088-32.866-35.554-60.107-35.554-60.107s-22.576-25.137-51.2-39.424a125.86,125.86,0,0,0-24.5-9.172c-9.17-2.369-13.755-3.554-19.438-2.875-14.133,1.689-23.727,12.158-27.515,16.29-2.566,2.8-4.768,6.065-9.171,12.594-2.279,3.379-6.355,9.612-10.815,17.659-4.435,8-10.477,18.906-15.331,33.127a183.526,183.526,0,0,0-9.309,51.881C186.586,420.388,188.136,425.607,185.739,426.63Z" transform="translate(0.248 -44.683)"/><path class="cls-3" d="M203.907,378.017c1.409,1.29,9.342-10.222,22.684-10.384a28.459,28.459,0,0,1,7.743,1.183c9.03,2.178,13.56,6.036,26.349,10.874,2.242.849,5.929,2.178,8.888.523a5.518,5.518,0,0,0,2.754-3.426,5.742,5.742,0,0,0-1.175-4.231c-3.522-5.211-14.643-4.641-28.362-9.47-6.89-2.425-9.048-4.316-14.529-4.246a25.81,25.81,0,0,0-11.982,3.3C207.254,367.2,202.694,376.909,203.907,378.017Z" transform="translate(0.248 -44.683)"/><path class="cls-3" d="M374.8,377.48c-1.385,1.267-9.181-10.046-22.293-10.206a27.976,27.976,0,0,0-7.609,1.163c-8.875,2.14-13.327,5.932-25.9,10.687-2.2.834-5.827,2.14-8.734.514a5.421,5.421,0,0,1-2.707-3.367,5.647,5.647,0,0,1,1.155-4.159c3.461-5.121,14.39-4.56,27.872-9.306,6.771-2.383,8.892-4.242,14.279-4.172a25.352,25.352,0,0,1,11.775,3.245C371.513,366.846,375.994,376.39,374.8,377.48Z" transform="translate(0.248 -44.683)"/><path class="cls-4" d="M265.041,450.606a11.014,11.014,0,0,0,5.28,20.127" transform="translate(0.248 -44.683)"/><path class="cls-4" d="M314.869,450.038a11.014,11.014,0,0,1-5.279,20.127" transform="translate(0.248 -44.683)"/><path class="cls-4" d="M271.664,461.65a29.745,29.745,0,0,0,37.9.159" transform="translate(0.248 -44.683)"/><circle class="cls-5" cx="271.009" cy="418.427" r="2.274"/><circle class="cls-5" cx="310.773" cy="418.209" r="2.274"/><path class="cls-6" d="M332.094,497.579a40.8,40.8,0,0,1-16.9-5.105c-7.44-4.266-10.126-9.249-15.78-8.815-4.263.327-4.737,3.313-9.6,3.577-5.469.3-6.69-3.384-11.605-3.4-5.173-.02-7.141,4.045-13.895,8.287a43.82,43.82,0,0,1-16.993,6.109c6.862,5.785,12.175,6.65,15.692,6.429,6.119-.385,7.826-4.125,14.831-4.238,6.36-.1,6.68,2.953,13.3,2.943,7.189-.011,8.081-3.614,14.949-3.3,5.721.266,6.757,2.843,11.889,3.061C322.475,503.32,327.176,501.579,332.094,497.579Z" transform="translate(0.248 -44.683)"/><path class="cls-5" d="M256.309,508.476c5.444,8.224,13.479,14.543,23.161,16.2a47.4,47.4,0,0,0,9.616.576c6.513,0,12.967-.2,18.934-2.906a35.866,35.866,0,0,0,14.719-12.438,30.637,30.637,0,0,1-13.7,14.546c-6.033,3.33-13.241,3.748-19.914,3.8-14.432.783-27.141-6.368-32.815-19.771Z" transform="translate(0.248 -44.683)"/><path class="cls-7" d="M398.616,389.286q.534-3.015,1.093-6.534c.8-13.738,5.234-115.257-63.694-165.515-32.354-23.591-65.166-26.5-110.343-30.053A365.343,365.343,0,0,0,94,201.132c-11.476,44.114-3.31,73.289,1.541,86.2,6.467,17.217,19.4,38.459,24.017,46.032,7.517,12.341,14.471,22.254,19.618,29.239a305.274,305.274,0,0,1,8.32-86.1,209.185,209.185,0,0,1,58.868-17.547c15.218-2.173,43.344-5.9,77.169,3.584,13.815,3.873,53.936,15.74,84.33,54.72A155.712,155.712,0,0,1,398.616,389.286Z" transform="translate(0.248 -44.683)"/><path class="cls-8" d="M94.921,198.222a187.452,187.452,0,0,1,63.206-95.295c17.81-8.292,66.827-28.124,125.45-14.072,106.29,25.479,141.6,137.767,143.3,143.48a144.627,144.627,0,0,0-26.907-41.641A149.466,149.466,0,0,0,370.5,166.35c-27.431-18.033-52.923-24.3-68.157-27.9-2.349-.556-31.213-7.242-58.719-6.775C170.011,132.921,109.216,185.354,94.921,198.222Z" transform="translate(0.248 -44.683)"/><path class="cls-9" d="M419.6,382.511c.433.3,2.988-2.929,7.84-8.345,8.109-9.052,10.2-10.172,14.447-15.195,3.711-4.39,7.817-10.194,13.237-19.81,22.181-39.36,33.4-59.034,34.04-76.591.464-12.784-1.788-24.273-11.783-50.406l-.9-2.362c-10.727,32.58-19.3,56.77-22.9,65.562-2.487,6.072-3.741,8.759-3.741,8.759-4.463,9.566-6,10.122-7.276,15.133-1,3.94-.172,4.057-1.164,13.1-.523,4.771-1.136,8.213-1.746,11.641-3.063,17.21-5.351,30.06-12.364,44.132C423.337,376.045,419.011,382.107,419.6,382.511Z" transform="translate(0.248 -44.683)"/><path class="cls-10" d="M95,199.738c13.539-13.567,68.666-65.625,152.218-66.815,6.638-.094,122.982.026,171.81,86.408.161.285.994,1.733,2.067,3.736,7.978,14.889,31.073,63.632,15.619,119.574-9.25,33.485-28.574,56.024-40.751,67.919,7.858-42.662,3.117-76.445-1.359-96.445-3.266-14.6-7.464-32.647-19.832-53.248-5.877-9.789-23.266-37.949-57.169-54.984a159.1,159.1,0,0,0-42.635-13.713c-2.243-.389-6.262-1.034-27.261-2.964-15.56-1.431-33.636-2.941-39.12-3.281C172.877,183.71,110.962,196.375,95,199.738Z" transform="translate(0.248 -44.683)"/><path class="cls-11" d="M443.129,297.332c5.943-11.213,17.136-36.184,13.982-67.924-4.044-40.7-29.04-66.247-42.026-79.518-34.395-35.147-75.434-45.307-93.646-48.6,44.243,25.33,67.49,55.878,78.528,73.089,13.236,20.637,20.75,40.549,25.49,53.3A335.7,335.7,0,0,1,443.129,297.332Z" transform="translate(0.248 -44.683)"/><path class="cls-12" d="M395.234,412.69q1.738-.089,2-29.052c-4.405-19.78-15.86-56.392-47.995-85.481-49.912-45.181-128.812-53.294-201.254-21.491a207.626,207.626,0,0,0-8.408,86.979,215.192,215.192,0,0,0,46.234,64.278,192.28,192.28,0,0,1,67.83-152.859c13.479,1.67,62.322,9.374,101.022,51.794C385.375,360.527,393,397.761,395.234,412.69Z" transform="translate(0.248 -44.683)"/><path class="cls-13" d="M366.836,513.046c9.763,24.628,32.026,38.776,51.748,35.538,18.934-3.109,29.093-21.187,31.485-25.874,9.976-19.549,3.8-39.251,1.247-47.384-5.749-18.332-17.3-30.248-31.8-45.2a208.156,208.156,0,0,0-19.951-18.08l-.461,12.031a121.666,121.666,0,0,1,15.755,14.278c6.688,7.222,17.61,19.272,23.372,37.938,2.8,9.051,5.7,18.454,2.775,30.062-.782,3.109-5.333,19.685-17.806,24.975-14.4,6.109-36.98-3.836-49.945-27.49Z" transform="translate(0.248 -44.683)"/><path class="cls-13" d="M224.589,526.862c-9.764,24.628-32.026,38.776-51.748,35.538-18.935-3.109-29.094-21.187-31.486-25.874-9.478-18.573-4.139-37.216-1.247-47.384,5.742-20.181,18.02-33.9,29.128-46.318a178.147,178.147,0,0,1,16.5-16.194l1.406,13.541c-2.614,2.736-6.363,6.814-10.583,12-9.834,12.08-18.659,22.67-23.372,37.938-2.794,9.051-5.7,18.454-2.775,30.062.783,3.109,5.334,19.685,17.806,24.975,14.4,6.109,36.98-3.836,49.946-27.49Z" transform="translate(0.248 -44.683)"/><path class="cls-14" d="M199.617,579.57c5.9,5.856,44.266,42.683,103.622,39.367,59.264-3.31,93.268-44.058,98.493-50.54,1.075.832,2.714,2.074,4.758,3.507,18.443,12.941,35.072,17.2,51.669,21.86,12.137,3.409,30.082,8.669,53.656,16.395a87.055,87.055,0,0,1-10.634,17.923c-6.884,8.938-8.582,8.907-12.63,13.247-14.392,15.432,3.964,39.647-4.038,63.6-7.17,21.462-26.345,15.3-47.15,40.516-26.313,31.9-9.3,55.794-31.591,80.623-25.666,28.588-74.057,24.194-103.125,21.554-30.566-2.775-71.363-6.48-95.977-36.139-27.973-33.708-14.624-76.335-46.21-93.014-13.736-7.253-20.789-1.76-31.992-8.887-24.6-15.648-22.635-62.811-16.589-101.906,11.164-2.687,22.779-5.808,34.777-9.439C165.781,592.447,183.453,586.1,199.617,579.57Z" transform="translate(0.248 -44.683)"/><path class="cls-15" d="M131.206,602.134c5.455,8.059,59.194,84.57,157.135,88,111.3,3.894,172.7-90.34,175.208-94.344-5.8-1.454-11.882-3.154-18.187-5.148-5.076-1.605-9.918-3.281-14.52-4.991-4.441,5.923-57.756,74.514-147.06,70.6-74.254-3.257-118.325-54.227-125.4-62.69q-7.736,2.651-15.9,5.2Q136.77,600.528,131.206,602.134Z" transform="translate(0.248 -44.683)"/><path class="cls-4" d="M181.09,587.564c5.9,6.744,46.428,51.509,112.571,51.056,73.369-.5,115.064-56.208,119.337-62.129" transform="translate(0.248 -44.683)"/><path class="cls-4" d="M449.324,318.241" transform="translate(0.248 -44.683)"/><path class="cls-5" d="M205.264,392.133c.645,0,1.59-.181,1.9-.846.275-.6-.24-1.061-.842-1.061-.645,0-1.59.18-1.9.845-.275.6.24,1.062.842,1.062Z" transform="translate(0.248 -44.683)"/><path class="cls-5" d="M375.465,392.727c1.708,0,2.177-2.274.216-2.274-1.709,0-2.177,2.274-.216,2.274Z" transform="translate(0.248 -44.683)"/></svg>