<svg id="Layer_1" data-name="Layer 1" xmlns="http://www.w3.org/2000/svg" viewBox="0 0 613.185 42.252"><defs><style>.cls-1,.cls-4{fill:#fff;}.cls-1,.cls-2,.cls-3{stroke:#231f20;stroke-miterlimit:10;}.cls-2{fill:#754c29;}.cls-2,.cls-3{stroke-width:0.75px;}.cls-3,.cls-5{fill:#231f20;}.cls-6{fill:#fcc291;}</style></defs><path class="cls-1" d="M235.147,18.836c17.693.89,30.126,9.66,35,13.531a85.857,85.857,0,0,1-33.976,8.49c-2.4.08-.231-.1-29.15-3.229-8.938-.966-13.514-1.421-13.916-3.429-.691-3.441,11.416-8.677,13.444-9.554C212.006,22.284,221.831,18.166,235.147,18.836Z" transform="translate(0 -1.969)"/><path class="cls-2" d="M248.25,23.108c.362,9.279-6.978,16.708-15.039,16.788-8.633.085-16.458-8.278-15.214-18.187a40.389,40.389,0,0,1,30.253,1.4Z" transform="translate(0 -1.969)"/><circle class="cls-3" cx="233.113" cy="26.577" r="3.473"/><circle class="cls-4" cx="235.355" cy="21.169" r="2.726"/><path class="cls-5" d="M205.774,12.389A65.137,65.137,0,0,1,259.95,4.752a65.944,65.944,0,0,1,16.965,7.91,76.265,76.265,0,0,0-17.18-7.172,70.639,70.639,0,0,0-53.961,6.9Z" transform="translate(0 -1.969)"/><path class="cls-5" d="M193.129,32.751c18.668-16.739,33.179-19.61,43.121-19.01,10.728.647,18,5.45,34.909,6.023A96.774,96.774,0,0,0,295.6,17.45L269.744,34.64A56.288,56.288,0,0,0,235,18.364C211.671,16.448,195.814,30.322,193.129,32.751Z" transform="translate(0 -1.969)"/><path class="cls-1" d="M56.466,21.686c-17.693.89-30.127,9.66-35,13.531a85.857,85.857,0,0,0,33.976,8.49c2.4.08.23-.1,29.149-3.229,8.939-.966,13.514-1.421,13.917-3.429.691-3.441-11.416-8.677-13.444-9.554C79.607,25.134,69.781,21.016,56.466,21.686Z" transform="translate(0 -1.969)"/><path class="cls-2" d="M43.363,25.958C43,35.237,50.341,42.666,58.4,42.746c8.634.085,16.459-8.278,15.214-18.187a40.387,40.387,0,0,0-30.252,1.4Z" transform="translate(0 -1.969)"/><circle class="cls-3" cx="58.5" cy="29.427" r="3.473"/><circle class="cls-4" cx="56.258" cy="24.019" r="2.726"/><path class="cls-5" d="M85.838,15.239a70.631,70.631,0,0,0-53.96-6.9A76.216,76.216,0,0,0,14.7,15.512,65.944,65.944,0,0,1,31.663,7.6a65.135,65.135,0,0,1,54.175,7.637Z" transform="translate(0 -1.969)"/><path class="cls-5" d="M102.469,37.037C83.8,20.3,69.29,17.427,59.348,18.027c-10.729.647-18,5.45-34.909,6.023A96.821,96.821,0,0,1,0,21.736l25.854,17.19A56.288,56.288,0,0,1,60.6,22.65C83.926,20.734,99.784,34.608,102.469,37.037Z" transform="translate(0 -1.969)"/><path class="cls-6" d="M587.732,29.135a85.853,85.853,0,0,1-33.976,8.49c-2.4.08-.23-.1-29.149-3.228-8.938-.967-13.514-1.422-13.917-3.43" transform="translate(0 -1.969)"/><path class="cls-5" d="M587.732,29.135c-10.679,6.6-23.492,10.62-36.133,10.389-10.669-1.3-21.334-2.746-31.926-4.685-2.318-.634-8.413-1.21-8.983-3.872a2.463,2.463,0,0,0,1.9,1.276,43.116,43.116,0,0,0,7.311.645c3.3.145,6.616.277,9.918.507,7.759.455,15.536,1.352,23.255,2.261,11.876-.134,23.324-2.809,34.657-6.521Z" transform="translate(0 -1.969)"/><path class="cls-5" d="M587.247,30.508l25.938-16.289a59.887,59.887,0,0,1-12.739,2.52c-1.955.169-3.809.231-5.546.219L546.55,36.892a72.467,72.467,0,0,0,22.127-.452A72.455,72.455,0,0,0,587.247,30.508Z" transform="translate(0 -1.969)"/><path class="cls-6" d="M341.061,32.342a85.853,85.853,0,0,0,33.976,8.49c2.4.08.23-.1,29.149-3.229,8.938-.966,13.514-1.421,13.917-3.43" transform="translate(0 -1.969)"/><path class="cls-5" d="M341.061,32.342c11.65,3.737,23.477,6.7,35.692,6.438,10.658-1.433,21.4-2.27,32.138-2.685a43.1,43.1,0,0,0,7.31-.646,2.463,2.463,0,0,0,1.9-1.276c-.563,2.667-6.7,3.244-8.983,3.872-10.591,1.94-21.258,3.39-31.926,4.685-12.642.231-25.453-3.792-36.133-10.388Z" transform="translate(0 -1.969)"/><path class="cls-5" d="M341.546,33.714,315.608,17.425a59.821,59.821,0,0,0,12.739,2.521c1.954.168,3.809.231,5.546.218L382.243,40.1a72.5,72.5,0,0,1-22.127-.453A72.4,72.4,0,0,1,341.546,33.714Z" transform="translate(0 -1.969)"/></svg>